Input #0, mov,mp4,m4a,3gp,3g2,mj2, from 'C:\Users\sulta\OneDrive - Invesense Asset Management Limited\Documents\remotion\benchmarks\.cache\source\whatsapp-video-2026-05-17-at-45014-am-15b7c7d9.mp4':
  Metadata:
    major_brand     : mp42
    minor_version   : 0
    compatible_brands: mp42isom
  Duration: 00:01:27.67, start: 0.000000, bitrate: 901 kb/s
  Stream #0:0[0x1](und): Video: h264 (Baseline) (avc1 / 0x31637661), yuv420p(tv, bt709, progressive), 576x1024, 837 kb/s, 30 fps, 30 tbr, 600 tbn (default)
  Stream #0:1[0x2](und): Audio: aac (LC) (mp4a / 0x6134706D), 44100 Hz, stereo, fltp, 62 kb/s (default)
Stream mapping:
  Stream #0:0 -> #0:0 (h264 (native) -> wrapped_avframe (native))
Press [q] to stop, [?] for help
Output #0, null, to 'NUL':
  Metadata:
    major_brand     : mp42
    minor_version   : 0
    compatible_brands: mp42isom
    encoder         : Lavf62.12.101
  Stream #0:0(und): Video: wrapped_avframe, yuv420p(tv, bt709, progressive), 576x1024, q=2-31, 200 kb/s, 30 fps, 30 tbn (default)
    Metadata:
      encoder         : Lavc62.28.101 wrapped_avframe
[Parsed_scdet_0 @ 000001ebcd693680] lavfi.scd.score: 57.555, lavfi.scd.time: 3.1
[Parsed_scdet_0 @ 000001ebcd693680] lavfi.scd.score: 58.246, lavfi.scd.time: 13.1
[Parsed_scdet_0 @ 000001ebcd693680] lavfi.scd.score: 37.168, lavfi.scd.time: 22.1
[Parsed_scdet_0 @ 000001ebcd693680] lavfi.scd.score: 12.056, lavfi.scd.time: 22.133333
[Parsed_scdet_0 @ 000001ebcd693680] lavfi.scd.score: 21.459, lavfi.scd.time: 22.166667
[Parsed_scdet_0 @ 000001ebcd693680] lavfi.scd.score: 13.539, lavfi.scd.time: 22.2
[Parsed_scdet_0 @ 000001ebcd693680] lavfi.scd.score: 81.724, lavfi.scd.time: 35.933333
[Parsed_scdet_0 @ 000001ebcd693680] lavfi.scd.score: 69.167, lavfi.scd.time: 38.9
[Parsed_scdet_0 @ 000001ebcd693680] lavfi.scd.score: 67.719, lavfi.scd.time: 46.1
[Parsed_scdet_0 @ 000001ebcd693680] lavfi.scd.score: 59.382, lavfi.scd.time: 47.866667
[Parsed_scdet_0 @ 000001ebcd693680] lavfi.scd.score: 68.079, lavfi.scd.time: 51.4
[Parsed_scdet_0 @ 000001ebcd693680] lavfi.scd.score: 70.384, lavfi.scd.time: 54.433333
[Parsed_scdet_0 @ 000001ebcd693680] lavfi.scd.score: 66.268, lavfi.scd.time: 72.066667
[Parsed_scdet_0 @ 000001ebcd693680] lavfi.scd.score: 77.947, lavfi.scd.time: 82.866667
[out#0/null @ 000001ebcd6928c0] video:1089KiB audio:0KiB subtitle:0KiB other streams:0KiB global headers:0KiB muxing overhead: unknown
frame= 2630 fps=0.0 q=-0.0 Lsize=N/A time=00:01:27.66 bitrate=N/A speed= 398x elapsed=0:00:00.22    
